# xmcd
#
# Track frame offsets:
#	150
#	13694
#	27761
#	40907
#	59049
#	70606
#	80527
#	93233
#	110385
#	128286
#	148222
#	169351
#	181403
#	195831
#	206782
#	234771
#
# Disc length: 3410 seconds
#
# Revision: 1
# Processed by: cddbd v1.5.2PL0 Copyright (c) Steve Scherf et al.
# Submitted via: audiograbber 1.83.01
#
DISCID=d10d5010
DTITLE=Willie, Waylon, and Hank Jr. - ASK82-2
DYEAR=1900
DGENRE=Karaoke
TTITLE0=Jennings, Waylon - Don't You Think This Outlaw Bit's Done Got Out Of Ha
TTITLE0=nd
TTITLE1=Jennings, Waylon - Drinkin' and Dreamin'
TTITLE2=Jennings, Waylon - I'm A Ramblin' Man
TTITLE3=Jennings, Waylon - I've Always Been Crazy
TTITLE4=Jennings, Waylon - Only Daddy That'll Walk The Line
TTITLE5=Jennings, Waylon - Theme from Dukes of Hazzard
TTITLE6=Jennings, Waylon - You Asked Me To
TTITLE7=Jennings, Waylon and Nelson, Willie - Luckenbach Texas
TTITLE8=Nelson, Willie - Always On My Mind
TTITLE9=Nelson, Willie - Georgia On My Mind
TTITLE10=Nelson, Willie - Last Thing I Need First Thing This Morning
TTITLE11=Nelson, Willie - Mama Don't Let Your Babies Grow Up To Be Cowboys
TTITLE12=Nelson, Willie - My Heroes Have Always Been Cowboys
TTITLE13=Nelson, Willie - On The Road Again
TTITLE14=Nelson, Willie - Whiskey River
TTITLE15=Data - Data
EXTD=
EXTT0=
EXTT1=
EXTT2=
EXTT3=
EXTT4=
EXTT5=
EXTT6=
EXTT7=
EXTT8=
EXTT9=
EXTT10=
EXTT11=
EXTT12=
EXTT13=
EXTT14=
EXTT15=
PLAYORDER=
